Coordinates
version=1
nRows=65
nColumns=12
inDegrees=yes

Units are S.I. units (second, meters, Newtons, ...)
Angles are in degrees

endheader
time	SC_y	SC_z	SC_x	AC_y	AC_z	AC_x	GH_y	GH_z	GH_yy	EL_x	PS_y
       0.0              -22.73          37.72          32.01          62.31         -18.23         -3.982          56.61          61.94         -78.03          45.34          46.81
   0.01138              -22.73          37.72          32.01          62.31         -18.23         -3.979          56.58          61.93         -78.04          45.35          46.81
   0.02277              -22.74          37.72          32.02          62.31         -18.23         -3.975          56.55          61.93         -78.04          45.36           46.8
   0.03415              -22.74          37.72          32.03          62.31         -18.23         -3.971          56.51          61.93         -78.05          45.37          46.79
   0.04553              -22.75          37.71          32.03          62.31         -18.23         -3.967          56.47          61.93         -78.05          45.38          46.79
   0.05692              -22.75          37.71          32.04          62.31         -18.22         -3.963          56.43          61.93         -78.05           45.4          46.78
    0.0683              -22.76          37.71          32.05          62.31         -18.22         -3.958          56.39          61.92         -78.06          45.41          46.77
   0.07969              -22.77          37.71          32.06          62.31         -18.22         -3.953          56.34          61.92         -78.06          45.42          46.76
   0.09107              -22.78           37.7          32.07          62.31         -18.22         -3.948          56.29          61.92         -78.07          45.44          46.75
    0.1025              -22.78           37.7          32.07          62.32         -18.22         -3.942          56.23          61.91         -78.08          45.46          46.74
    0.1138              -22.79           37.7          32.08          62.32         -18.21         -3.936          56.17          61.91         -78.08          45.47          46.73
    0.1252               -22.8          37.69           32.1          62.32         -18.21          -3.93          56.11          61.91         -78.09          45.49          46.72
    0.1366              -22.81          37.69          32.11          62.32         -18.21         -3.923          56.04           61.9          -78.1          45.51          46.71
     0.148              -22.82          37.68          32.12          62.32         -18.21         -3.915          55.97           61.9          -78.1          45.54           46.7
    0.1594              -22.83          37.68          32.13          62.32          -18.2         -3.907          55.89          61.89         -78.11          45.56          46.68
    0.1708              -22.85          37.67          32.15          62.32          -18.2         -3.898           55.8          61.89         -78.12          45.59          46.67
    0.1821              -22.86          37.67          32.17          62.33         -18.19         -3.888          55.71          61.88         -78.13          45.62          46.65
    0.1935              -22.88          37.66          32.18          62.33         -18.19         -3.877          55.61          61.88         -78.14          45.65          46.64
    0.2049              -22.89          37.66           32.2          62.33         -18.19         -3.865          55.49          61.87         -78.16          45.68          46.62
    0.2163              -22.91          37.65          32.22          62.33         -18.18         -3.853          55.37          61.86         -78.17          45.72          46.59
    0.2277              -22.93          37.64          32.25          62.34         -18.18         -3.839          55.24          61.86         -78.19          45.76          46.57
    0.2391              -22.95          37.63          32.27          62.34         -18.17         -3.823          55.09          61.85          -78.2           45.8          46.55
    0.2504              -22.98          37.62           32.3          62.34         -18.16         -3.806          54.93          61.84         -78.22          45.85          46.52
    0.2618               -23.0          37.61          32.33          62.35         -18.16         -3.787          54.75          61.83         -78.24          45.91          46.49
    0.2732              -23.03           37.6          32.37          62.35         -18.15         -3.766          54.55          61.82         -78.26          45.97          46.45
    0.2846              -23.07          37.59          32.41          62.36         -18.14         -3.743          54.32           61.8         -78.29          46.04          46.41
     0.296               -23.1          37.57          32.45          62.36         -18.13         -3.717          54.07          61.79         -78.31          46.11          46.37
    0.3074              -23.15          37.56           32.5          62.37         -18.12         -3.687          53.79          61.77         -78.34           46.2          46.32
    0.3187              -23.19          37.54          32.56          62.38          -18.1         -3.654          53.47          61.76         -78.38          46.29          46.26
    0.3301              -23.25          37.52          32.62          62.39         -18.09         -3.616          53.11          61.74         -78.42           46.4           46.2
    0.3415              -23.31          37.49          32.69           62.4         -18.07         -3.573          52.69          61.71         -78.46          46.53          46.13
    0.3529              -23.38          37.46          32.77          62.41         -18.05         -3.523          52.22          61.68         -78.52          46.67          46.04
    0.3643              -23.46          37.43          32.87          62.42         -18.03         -3.466          51.67          61.65         -78.58          46.84          45.95
    0.3757              -23.56          37.39          32.98          62.43         -18.01           -3.4          51.03          61.62         -78.65          47.03          45.84
     0.387              -23.67          37.35          33.11          62.45         -17.97         -3.322          50.29          61.57         -78.73          47.26          45.71
    0.3984               -23.8           37.3          33.26          62.47         -17.94          -3.23          49.41          61.52         -78.83          47.52          45.55
    0.4098              -23.95          37.24          33.44          62.49          -17.9         -3.121          48.36          61.46         -78.94          47.84          45.37
    0.4212              -24.14          37.16          33.66          62.52         -17.85         -2.991          47.11          61.39         -79.08          48.22          45.15
    0.4326              -24.36          37.07          33.92          62.56         -17.78         -2.833           45.6           61.3         -79.24          48.68          44.89
     0.444              -24.64          36.97          34.25           62.6         -17.71          -2.64          43.74           61.2         -79.45          49.24          44.56
    0.4553              -24.98          36.83          34.64          62.65         -17.62         -2.401          41.46          61.07          -79.7          49.93          44.17
    0.4667               -25.4          36.66          35.14          62.71          -17.5         -2.104          38.61           60.9         -80.01           50.8          43.67
    0.4781              -25.93          36.45          35.76           62.8         -17.36          -1.73          35.03           60.7         -80.41          51.88          43.04
    0.4895              -26.61          36.19          36.56           62.9         -17.17         -1.254          30.47          60.44         -80.91          53.26          42.25
    0.5009              -27.47          35.84          37.57          63.03         -16.93        -0.6453          24.63           60.1         -81.55          55.03          41.23
    0.5123              -28.59           35.4          38.87           63.2         -16.63         0.1362          17.14          59.67         -82.37           57.3          39.92
    0.5236              -30.01          34.84          40.54          63.42         -16.24          1.134           7.57          59.13         -83.42           60.2          38.25
     0.535              -31.79          34.14          42.63          63.69         -15.75           2.39          -4.46          58.44         -84.74          63.85          36.15
    0.5464              -33.97          33.27          45.18          64.02         -15.16          3.919         -19.12           57.6         -86.35          68.29          33.59
    0.5578              -36.49          32.28          48.14          64.41         -14.47          5.692         -36.12          56.62         -88.22          73.44          30.62
    0.5692              -39.22           31.2          51.34          64.83         -13.72          7.612         -54.52          55.57         -90.24          79.01          27.41
    0.5806              -41.95          30.12          54.54          65.24         -12.98          9.531         -72.92          54.52         -92.26          84.59          24.19
    0.5919              -44.47          29.12           57.5          65.63         -12.29           11.3         -89.91          53.54         -94.13          89.74          21.23
    0.6033              -46.65          28.26          60.05          65.96         -11.69          12.83         -104.6           52.7         -95.74          94.18          18.67
    0.6147              -48.43          27.55          62.14          66.23          -11.2          14.09         -116.6          52.01         -97.06          97.83          16.57
    0.6261              -49.85          26.99           63.8          66.45         -10.82          15.09         -126.2          51.47         -98.11          100.7          14.89
    0.6375              -50.96          26.55          65.11          66.62         -10.51          15.87         -133.7          51.04         -98.93          103.0          13.59
    0.6489              -51.83          26.21          66.12          66.75         -10.28          16.48         -139.5           50.7         -99.58          104.8          12.57
    0.6602              -52.51          25.94          66.91          66.86         -10.09          16.95         -144.1          50.44         -100.1          106.1          11.77
    0.6716              -53.04          25.73          67.54          66.94         -9.945          17.33         -147.6          50.24         -100.5          107.2          11.14
     0.683              -53.46          25.56          68.03           67.0         -9.829          17.62         -150.5          50.07         -100.8          108.1          10.65
    0.6944               -53.8          25.43          68.43          67.05         -9.736          17.86         -152.8          49.94         -101.0          108.8          10.25
    0.7058              -54.08          25.32          68.75           67.1         -9.661          18.06         -154.6          49.84         -101.2          109.3          9.926
    0.7172               -54.3          25.23          69.02          67.13           -9.6          18.21         -156.1          49.75         -101.4          109.8          9.661
    0.7286              -54.49          25.16          69.23          67.16         -9.549          18.34         -157.4          49.68         -101.5          110.2          9.443
